<?xml version="1.0" encoding="UTF-8"?>
<!-- Created with Inkscape (http://www.inkscape.org/) -->
<svg width="1706.7" height="960" version="1.1" viewBox="0 0 1706.7 960" xmlns="http://www.w3.org/2000/svg" xmlns:cc="http://creativecommons.org/ns#" xmlns:dc="http://purl.org/dc/elements/1.1/" xmlns:rdf="http://www.w3.org/1999/02/22-rdf-syntax-ns#">
 <metadata>
  <rdf:RDF>
   <cc:Work rdf:about="">
    <dc:format>image/svg+xml</dc:format>
    <dc:type rdf:resource="http://purl.org/dc/dcmitype/StillImage"/>
    <dc:title/>
   </cc:Work>
  </rdf:RDF>
 </metadata>
 <g stroke-width="1.3333">
  <path d="m139.7 2342.7v-480h1706.7v960h-1706.7z" fill="#fefefe"/>
  <path d="m485.7 2497.4c-0.45322-0.7334-2.2577-1.3334-4.0099-1.3334-5.0183 0-24.29-6.4156-36.046-11.999-34.602-16.436-63.189-50.973-73.392-88.667-5.1854-19.157-6.0224-46.552-1.9908-65.16 6.2094-28.66 16.969-49.179 36.655-69.903 18.533-19.511 38.997-31.163 67.42-38.39 11.116-2.8267 15.616-3.2131 37.414-3.2131 23.25 0 25.756 0.2503 40.624 4.0579 18.308 4.6884 33.843 11.588 49.177 21.84 12.975 8.6752 28.669 21.504 29.749 24.317 0.52448 1.3667-4.1718 6.9934-14.389 17.24-8.3423 8.366-15.689 15.211-16.327 15.211-0.63746 0-5.3073-3.5792-10.377-7.9537-32.097-27.694-69.637-35.921-109.66-24.033-25.083 7.4498-51.397 32.286-60.113 56.737-1.2906 3.6206-3.0332 8.0249-3.8723 9.7873-0.94694 1.9889-1.5002 10.839-1.4587 23.333 0.0604 18.174 0.39132 20.978 3.4074 28.87 7.745 20.268 20.419 37.148 36.514 48.633 8.1801 5.8372 12.003 7.739 30.349 15.099 6.5669 2.6345 27.91 4.5343 40.888 3.6397 22.79-1.571 40.429-9.245 55.759-24.258 7.7497-7.5894 10.708-11.706 14.848-20.667 2.8439-6.1541 5.5564-12.839 6.0276-14.856l0.85687-3.6667h-34.025c-41.081 0-39.359 0.6931-39.359-15.837 0-7.5871 0.54109-10.952 1.9488-12.121 1.4734-1.2228 15.216-1.5284 56.333-1.2529 29.911 0.2004 55.435 0.6247 56.718 0.9429 1.9388 0.4807 2.3333 2.1226 2.3333 9.7091 0 18.154-6.8705 45.197-15.555 61.225-15.618 28.825-40.3 49.044-70.85 58.039-6.3772 1.8777-13.438 3.9871-15.69 4.6874-5.5474 1.7252-58.835 1.6719-59.905-0.06zm285.33 0.5461c-36.034-8.2912-63.209-24.356-83.194-49.181-11.653-14.475-19.659-28.552-24.285-42.699-0.95921-2.9333-2.2006-5.9728-2.7588-6.7544-0.55809-0.7817-1.4156-4.8317-1.9055-9-0.48992-4.1684-1.4081-7.5789-2.0405-7.5789-0.63238 0-1.1498-10.8-1.1498-24s0.51738-24 1.1498-24c0.63236 0 1.535-3.2775 2.0058-7.2832 0.4708-4.0058 1.5281-8.9558 2.3496-11 0.82148-2.0443 1.9598-4.9168 2.5297-6.3835 18.556-47.76 55.594-79.242 105.97-90.071 6.917-1.4869 46.416-1.4869 53.333 0 33.813 7.2687 61.957 24.01 81.868 48.698 14.165 17.564 20.312 29.418 27.673 53.372 2.0649 6.719 2.4585 12.59 2.4585 36.667s-0.39368 29.948-2.4585 36.667c-8.8463 28.786-18.733 45.475-38.208 64.496-15.239 14.884-34.857 26.746-54 32.653-4.4 1.3575-9.5 3.1161-11.333 3.9078-3.3054 1.4275-52.751 2.6978-58 1.49zm37.11-42.523c14.073-2.3066 18.241-3.6726 32.223-10.559 15.374-7.5719 32.58-24.983 40.318-40.798 9.071-18.54 10.259-23.639 10.254-44-4e-3 -13.634-0.59675-19.941-2.4457-26-8.7078-28.536-26.187-49.231-51.883-61.429-15.543-7.3784-23.489-9.0713-42.244-9-15.108 0.057-17.773 0.4496-28.499 4.1929-30.594 10.678-51.004 30.871-62.404 61.745-3.8657 10.469-4.1226 12.31-4.1602 29.824-0.0373 17.386 0.23702 19.465 3.9992 30.306 5.6914 16.4 11.371 25.332 24.397 38.37 15.388 15.4 31.471 23.56 54 27.398 12.627 2.1512 13.012 2.1504 26.444-0.051zm479.27 25.24c-18.728-4.5402-34.501-16.872-42.707-33.387-9.2869-18.692-10.313-27.788-10.325-91.542l-0.01-53h24l0.039 43c0.047 52.102 1.4123 73.651 5.3292 84.12 3.6204 9.6765 13.32 19.789 23.605 24.608 7.0749 3.3153 9.033 3.605 24.36 3.605 15.504 0 17.19-0.257 24.169-3.6855 8.7533-4.3003 18.931-14.607 22.588-22.873 4.0263-9.1022 5.1958-26.984 5.2207-79.825l0.023-49.05 24.667 0.7668 0.395 45.333c0.6698 76.861-2.752 94.314-22.371 114.1-14.667 14.79-29.148 19.973-55.304 19.792-8.8292-0.061-19.484-0.9429-23.678-1.9595zm-305.04-78.552v-76.623l-30-0.754v-21.333l30-0.754v-63.913h24v64h34.667v22.667h-34.667v153.33h-24zm88-11.427v-88.05l24.667 0.7668 0.3429 87.667 0.343 87.667h-25.352zm58.99 0.3833 0.3429-87.667 24.667-0.7669 0.015 13.05 0.015 13.05 3.5679-4.6667c12.225-15.989 25.976-24.015 41.069-23.97 6.318 0.019 11.162 0.8583 14.994 2.5978l5.6607 2.5695-6.2069 10.621c-5.7825 9.8941-6.4264 10.537-9.4143 9.4011-5.2241-1.9862-16.64-1.3397-22.378 1.2673-9.8463 4.4731-19.097 18.596-23.213 35.44-2.5733 10.529-4.011 38.52-4.0617 79.073l-0.047 37.667h-25.352zm298.67 0 0.343-87.667 24.667-0.7669 0.015 13.05 0.015 13.05 3.568-4.6667c12.082-15.802 25.983-23.997 40.709-23.999 7.2014-9e-4 17.638 2.3856 20.786 4.7531 0.2344 0.1763-2.3748 5.1414-5.7984 11.034-5.8584 10.083-6.418 10.639-9.5131 9.4626-5.2966-2.0138-16.685-1.3869-22.46 1.2364-9.8463 4.4731-19.097 18.596-23.213 35.44-2.5732 10.529-4.0109 38.52-4.0616 79.073l-0.047 37.667h-25.352zm97.276-33.933c-1.7079-1.7079-2.1245-7.4818-0.7907-10.958 0.9562-2.4917 7.2727-2.827 9.5907-0.5091 1.7079 1.7079 2.1245 7.4818 0.7907 10.958-0.9562 2.4918-7.2727 2.8271-9.5907 0.5092zm22.4-25.067v-26.667h10.667v53.333h-10.667zm21.333 0v-26.667h5.3334c3.8549 0 5.3333 0.5551 5.3333 2.0026 0 1.6622 0.8464 1.5488 4.9803-0.6668 6.6596-3.5693 18.149-3.5965 23.955-0.057 7.5878 4.6264 8.8994 9.0108 9.4887 31.721l0.5276 20.333h-10.952v-17.376c0-20.036-1.4543-25.246-7.7777-27.865-3.5422-1.4671-4.7884-1.3614-9.078 0.7704-9.1372 4.5407-10.42 7.7414-10.917 27.23l-0.4392 17.241h-10.455v-26.667zm-22.4-37.6c-0.88-0.88-1.6-2.86-1.6-4.4 0-4.0057 2.5355-6 7.6286-6 5.432 0 8.285 4.5121 5.795 9.1647-1.7134 3.2017-9.0869 3.972-11.824 1.2353zm-476.87-29.19c-8.8604-7.7795-9.2139-19.081-0.8476-27.097 7.5638-7.2466 19.192-6.8016 26.35 1.0082 5.809 6.3387 6.8264 12.518 3.2703 19.864-3.5292 7.2905-8.6491 10.348-17.328 10.348-5.6413 0-7.518-0.6762-11.444-4.1237z" fill="#c7d4b5"/>
  <path d="m491.36 2497.9c-0.43386-0.4339-5.4839-1.8723-11.222-3.1964-21.1-4.869-34.054-10.125-49.037-19.899-28.813-18.794-51.82-51.4-58.494-82.9-4.3039-20.312-4.9018-24.292-4.9018-32.626 0-18.104 6.0178-44.346 14.052-61.276 23.688-49.918 71.866-79.309 130.01-79.313 27.741 0 49.865 5.4132 75.159 18.395 16.888 8.6673 43.447 28.763 43.447 32.873 0 2.0428-27.838 30.068-29.851 30.052-0.81525-0.01-5.0087-3.0303-9.3187-6.7194-11.341-9.7074-18.303-14.229-30.599-19.874-17.285-7.9345-27.036-10.038-46.231-9.9737-19.748 0.066-28.486 2.0784-46.253 10.649-26.822 12.939-44.627 34.565-52.34 63.572-10.957 41.211 11.655 87.498 52.849 108.18 3.8079 1.9119 12.208 5.0626 18.667 7.0015 16.4 4.9231 41.288 5.2454 57.017 0.7383 21.298-6.1029 37.152-17.127 47.836-33.264 5.6809-8.5799 13.38-27.366 11.845-28.901-0.40283-0.4028-16.159-0.7324-35.014-0.7324-27.793 0-34.575-0.3541-35.834-1.8708-0.98468-1.1864-1.4102-5.9417-1.1633-13l0.38935-11.129 57.036-0.3477c52.155-0.3179 57.109-0.1578 57.887 1.8703 1.12 2.9186-4.0949 37.946-6.9196 46.477-3.6399 10.994-13.494 30.141-19.899 38.667-14.459 19.245-40.825 36.331-64.772 41.974-6.2333 1.4689-13.176 3.2757-15.428 4.0152-4.3167 1.4174-47.563 1.9087-48.916 0.5557zm283.01-0.4067c-1.1-0.613-4.4-1.4779-7.3333-1.9221-20.76-3.1439-46.941-16.821-67.465-35.244-16.463-14.778-33.199-43.495-38.641-66.305-1.5747-6.6-3.3949-13.042-4.045-14.315-1.5567-3.0492-1.5307-39.055 0.0303-42.036 0.6668-1.2734 2.2134-6.8152 3.4368-12.315 11.393-51.216 54.57-92.965 107.91-104.34 10.885-2.3219 47.9-1.9319 58.106 0.6121 48.458 12.08 83.592 42.478 100.63 87.065 6.5159 17.054 8.7057 29.63 8.7057 50s-2.1898 32.946-8.7056 50c-16.29 42.636-52.602 75.125-95.294 85.265-5.5 1.3063-11.378 2.9061-13.063 3.5551-3.8738 1.4927-41.588 1.4796-44.271-0.015zm46.63-44.156c35.817-10.147 61.873-38.229 69.423-74.819 3.1218-15.129 3.1982-19.771 0.57261-34.781-6.5375-37.373-32.365-66.391-69.292-77.854-6.252-1.9408-12.079-2.4698-26.667-2.4211-16.553 0.055-19.875 0.4643-29.333 3.6108-15.589 5.1859-26.539 12.12-39.48 25.003-9.5153 9.4724-12.544 13.583-17.697 24.021-24.029 48.667-4.9524 106.3 43.238 130.62 20.873 10.537 46.694 13.005 69.236 6.6182zm465.62 26.734c-5.3602-1.4496-12.703-4.2451-16.317-6.2121-9.3158-5.0703-21.882-18.657-26.595-28.754-7.7552-16.616-8.2946-21.678-8.9584-84.083l-0.6064-57h24.222l0.023 47.667c0.028 57.225 1.0596 69.745 6.6971 81.263 12.152 24.827 45.091 34.052 72.829 20.397 14.061-6.9222 22.2-19.04 24.457-36.413 0.6846-5.2692 1.2632-32.83 1.2859-61.247l0.041-51.667h24.174l-0.4987 59c-0.5459 64.592-0.7015 66.026-9.0176 83.123-7.4772 15.372-19.267 25.626-37.086 32.258-12.646 4.7058-40.299 5.5502-54.651 1.6688zm-304.25-78.716v-77.333h-30.667v-20h30.667v-65.437l11.667 0.3852 11.667 0.3853 0.357 32.333 0.3571 32.333h34.619v20h-34.667v154.67h-24zm88-10v-87.333h24v174.67h-24zm60 0v-87.333h24v25.734l3.7729-5.2001c10.911-15.038 26.666-24.533 40.706-24.533 7.556 0 19.521 3.4075 19.521 5.5594 0 1.6232-10.527 19.774-11.468 19.774-0.3763 0-3.3266-0.6654-6.5564-1.4787-11.857-2.9855-25.409 3.6314-33.416 16.316-10.005 15.848-12.531 35.343-12.548 96.83l-0.011 41.667h-24zm298.67 0v-87.333h24v25.734l3.773-5.2001c6.5948-9.0894 18.397-18.821 26.565-21.904 6.0838-2.2965 9.5849-2.7642 16.996-2.2711 9.4313 0.6277 16.667 2.9673 16.667 5.3892 0 0.7257-2.5034 5.613-5.563 10.861l-5.5632 9.5416-5.868-1.9319c-11.782-3.8788-26.119 2.7606-34.446 15.952-10.005 15.848-12.531 35.343-12.548 96.83l-0.011 41.667h-24zm95.923-36.202c-1.881-4.9477 0.1486-10.347 4.1066-10.925 3.7629-0.5486 6.6369 2.821 6.6369 7.7816 0 7.1316-8.3035 9.561-10.744 3.1431zm22.744-23.131v-26.667h9.3333v53.333h-9.3333zm21.333 0v-26.667h5.3334c4.4172 0 5.3333 0.4511 5.3333 2.6264 0 2.491 0.2504 2.4566 4.8527-0.6666 9.5864-6.5055 24.951-3.3745 30.044 6.1225 2.0548 3.8314 2.4364 7.7305 2.4364 24.897v20.354h-9.1412l-0.4294-19.864c-0.3695-17.094-0.774-20.245-2.901-22.591-3.7526-4.1403-9.44-4.8645-15.106-1.924-8.0334 4.169-9.7553 9.1155-9.7553 28.025v16.354h-10.667zm-22.4-37.6c-0.88-0.88-1.6-2.86-1.6-4.4 0-3.7734 2.474-6 6.6667-6 4.442 0 6.6667 2.2661 6.6667 6.7907 0 4.9694-7.933 7.4097-11.733 3.6093zm-477.76-30.243c-4.8097-4.8097-5.1765-5.7184-5.1765-12.824 0-7.1052 0.3668-8.0139 5.1765-12.824 4.8096-4.8096 5.7183-5.1764 12.824-5.1764s8.0139 0.3668 12.824 5.1764c4.8097 4.8097 5.1765 5.7184 5.1765 12.824 0 7.1051-0.3668 8.0138-5.1765 12.824-4.8096 4.8097-5.7183 5.1765-12.824 5.1765s-8.0139-0.3668-12.824-5.1765z" fill="#b4c998"/>
  <path d="m493.7 2496.7c-3.6667-0.9521-12.367-3.0676-19.333-4.701-30.511-7.1539-53.163-21.289-73.75-46.02-9.2083-11.062-21.852-33.862-24.77-44.667-0.89106-3.3-2.57-9.6-3.7311-14-2.7879-10.565-3.1436-44.824-0.58156-56 14.372-62.69 56.569-101.37 121.52-111.39 14.587-2.2506 37.227-0.7404 56.648 3.7788 18.265 4.2501 48.909 18.567 58.919 27.526 0.872 0.7805 6.0986 5.0191 11.615 9.4191 5.5161 4.4 9.9027 8.4305 9.7479 8.9567-0.5679 1.9308-27.866 30.377-29.151 30.377-0.73022 0-5.2821-3.3548-10.115-7.4551-14.998-12.724-30.556-21.202-47.951-26.13-8.3179-2.3565-13.999-2.9588-28.398-3.0111-18.9-0.068-28.458 1.8754-43.938 8.9362-34.485 15.729-57.439 50.395-57.372 86.643 0.0679 36.671 21.411 70.01 55.31 86.4 18.979 9.1756 28.215 11.247 50 11.213 16.074-0.025 19.213-0.4274 29.333-3.7571 6.2333-2.0508 14.338-5.439 18.01-7.5295 10.42-5.9321 22.815-17.978 28.574-27.768 5.4218-9.2178 11.248-24.991 9.9849-27.034-0.399-0.6456-16.14-1.183-34.98-1.1942-18.84-0.011-35.03-0.5127-35.979-1.1143-1.241-0.7873-1.6146-4.2374-1.3333-12.313l0.3908-11.219 40-0.4149c22-0.2282 47.971-0.016 57.712 0.4724 16.012 0.8021 17.642 1.1102 16.975 3.2097-0.40543 1.2774-1.3018 7.6648-1.992 14.194-3.4732 32.858-14.623 58.56-34.029 78.446-19.134 19.607-33.278 26.536-73.333 35.927-11.169 2.6186-34.316 2.7341-44 0.2197zm284.67 0.6128c-1.1-0.7109-3.9218-1.3017-6.2706-1.313-2.3488-0.011-5.6488-0.5516-7.3333-1.2008-1.6845-0.6493-6.6574-2.2257-11.051-3.5029-19.461-5.6578-38.957-17.52-54.699-33.281-6.6112-6.6194-12.919-13.235-14.017-14.702-7.6563-10.224-16.621-27.604-22.008-42.667-5.2428-14.661-9.4707-55.756-6.1491-59.77 0.71176-0.86 1.9816-5.4636 2.822-10.23 4.3437-24.64 17.137-48.817 36.506-68.992 17.729-18.467 42.326-32.677 66.2-38.246 5.5-1.2829 12.17-2.8791 14.821-3.5473 6.6856-1.6845 31.806-1.5232 39.493 0.2537 20.612 4.7648 27.353 6.871 38.492 12.027 29.724 13.758 53.973 38.217 68.072 68.663 5.25 11.336 5.9583 13.624 9.8587 31.842 6.2698 29.285 0.75225 65.238-14.202 92.539-19.632 35.842-53.406 61.19-92.535 69.451-4.0333 0.8515-9.1759 2.1022-11.428 2.7792-5.4136 1.6276-34.019 1.5477-36.572-0.1021zm40.667-43.139c32.452-9.1043 56.759-31.266 67.754-61.772 3.5185-9.7626 6.257-24.716 6.2286-34.012-9e-3 -3.1595-1.1591-11.277-2.5544-18.038-7.3606-35.668-33.166-63.657-68.761-74.579-11.313-3.4714-41.944-3.4397-53.333 0.055-31.013 9.5167-57.679 35.938-66.48 65.869-9.9767 33.929-1.0449 70.274 23.611 96.075 12.804 13.399 34.308 24.674 53.887 28.254 8.442 1.5438 31.358 0.4726 39.649-1.8532zm470 26.458c-26.377-5.9406-44.037-24.274-51.361-53.32-2.0116-7.9776-2.4387-17.614-2.9408-66.333l-0.5873-57h24.222l0.023 47.667c0.027 54.722 1.1309 69.296 6.0879 80.342 16.437 36.627 76.715 36.897 93.861 0.4203 4.425-9.4138 5.2763-21.697 5.3202-76.762l0.041-51.667h24l-0.047 54.333c-0.049 57.652-0.776 66.672-6.6139 82.099-6.5324 17.263-22.82 32.497-41.019 38.367-11.71 3.7769-38.174 4.7389-50.987 1.8534zm-306.67-79.32v-77.333h-30.667v-20h30.667v-64h24v64h34.667v20h-34.667v154.67h-24zm88-10v-87.333h24v174.67h-24zm60 0v-87.333h24v25.734l3.7729-5.2001c10.7-14.746 26.67-24.533 40.035-24.533 7.4136 0 20.192 3.4716 20.192 5.4857 0 1.6742-10.501 19.848-11.468 19.848-0.3763 0-3.3266-0.6654-6.5564-1.4787-12.319-3.102-26.407 4.214-34.409 17.868-9.3207 15.905-11.538 34.188-11.555 95.277l-0.011 41.667h-24zm298.67 0v-87.333h24v25.734l3.773-5.2001c10.911-15.038 26.666-24.533 40.706-24.533 7.5559 0 19.521 3.4075 19.521 5.5594 0 1.6232-10.527 19.774-11.468 19.774-0.3762 0-3.3266-0.6654-6.5564-1.4787-12.319-3.102-26.407 4.214-34.409 17.868-9.3207 15.905-11.538 34.188-11.555 95.277l-0.011 41.667h-24zm95.923-36.202c-1.881-4.9477 0.1486-10.347 4.1066-10.925 3.7629-0.5486 6.6369 2.821 6.6369 7.7816 0 7.1316-8.3035 9.561-10.744 3.1431zm22.744-23.131v-26.667h9.3333v53.333h-9.3333zm21.333 0v-26.667h5.3334c4.4172 0 5.3333 0.4511 5.3333 2.6264 0 2.491 0.2504 2.4566 4.8527-0.6666 9.5864-6.5055 24.951-3.3745 30.044 6.1225 2.0548 3.8314 2.4364 7.7305 2.4364 24.897v20.354h-9.1412l-0.4294-19.864c-0.3695-17.094-0.774-20.245-2.901-22.591-3.7526-4.1403-9.44-4.8645-15.106-1.924-8.0334 4.169-9.7553 9.1155-9.7553 28.025v16.354h-10.667zm-22.4-37.6c-0.88-0.88-1.6-2.86-1.6-4.4 0-3.7734 2.474-6 6.6667-6 4.442 0 6.6667 2.2661 6.6667 6.7907 0 4.9694-7.933 7.4097-11.733 3.6093zm-474.44-27.624c-6.105-3.7227-8.4916-7.8763-8.4693-14.739 0.025-7.6005 2.1343-11.802 7.8637-15.663 7.9773-5.3759 19.148-3.4151 25.332 4.4465 2.0175 2.5649 2.7844 5.4604 2.7844 10.514 0 5.053-0.7669 7.9486-2.7844 10.514-5.9269 7.5348-16.874 9.7171-24.727 4.9292z" fill="#a4ad97"/>
  <path d="m492.37 2496.4c-4.4-1.0902-13.898-3.4559-21.108-5.257-22.25-5.5591-39.605-14.839-56.135-30.017-22.552-20.707-36.354-44.925-43.59-76.487-2.389-10.42-2.3738-42.724 0.0251-53.333 12.944-57.242 49.316-94.256 106.81-108.69 19.253-4.8341 47.587-4.4022 71.333 1.0872 13.588 3.1412 36.238 12.644 47.888 20.091 8.4823 5.4224 25.04 18.193 29.045 22.402l3.5992 3.7827-14.266 15.014c-7.8462 8.2574-14.742 15.006-15.324 14.997-0.58195-0.01-3.4561-2.2349-6.387-4.9466-16.104-14.9-35.297-25.37-55.888-30.486-11.606-2.8839-38.012-2.4629-50.189 0.8002-28.375 7.6039-52.373 26.262-64.903 50.462-8.0004 15.451-9.5749 22.603-9.5749 43.488 0 20.771 1.6067 28.075 9.4416 42.92 13.225 25.058 31.729 40.302 61.53 50.693 9.612 3.3512 11.952 3.6162 32.361 3.6639 21.267 0.05 22.383-0.086 33.49-4.0595 20.15-7.2092 35.712-19.81 45.868-37.139 3.2121-5.481 8.6416-20.718 8.6416-24.251 0-1.5002-6.2963-1.8263-35.255-1.8263-23.124 0-35.552-0.4805-36.118-1.3963-1.1457-1.8537-1.1715-20.645-0.0309-22.491 0.61828-1.0004 15.361-1.3953 47.815-1.2808 51.75 0.1827 65.767 0.9263 65.268 3.4624-0.17622 0.8953-0.65649 5.9953-1.0672 11.333-0.41074 5.338-1.2619 11.805-1.8915 14.372-0.62956 2.5666-1.8797 7.9666-2.7781 12-7.567 33.971-32.451 65.209-63.085 79.196-8.8809 4.0545-28.986 10.138-33.506 10.138-1.6591 0-5.5674 0.9-8.6852 2-7.3632 2.5979-32.441 2.4592-43.333-0.2396zm287.33 0.6839c-34.513-7.1065-48.745-13.156-70.03-29.767-25.872-20.191-44.716-51.672-49.934-83.419-0.89716-5.4586-2.2194-11.173-2.9382-12.699-3.0546-6.483 1.484-39.44 7.9836-57.972 14.473-41.267 46.392-72.759 87.585-86.413 13.706-4.543 33.252-8.1743 44-8.1743s30.294 3.6313 44 8.1743c49.075 16.266 84.87 58.707 93.286 110.6 2.5687 15.839 2.5759 25.963 0.03 41.785-8.0438 49.988-39.897 90.14-86.216 108.68-8.7794 3.5141-14.301 4.9537-36.202 9.4391-7.7304 1.5832-23.291 1.4659-31.565-0.2378zm43.333-43.463c34.58-11.114 58.679-36.915 67.519-72.288 5.6631-22.661 1.3399-50.733-11.032-71.638-10.75-18.165-31.003-34.789-51.305-42.112-53.82-19.414-113.29 12.082-127.88 67.723-8.6657 33.06 1.1356 68.658 25.68 93.266 13.144 13.179 28.081 21.667 46.306 26.315 12.468 3.1801 38.93 2.5192 50.709-1.2666zm473.33 28.174c-24.23-3.7332-42.575-16.72-51.984-36.802-8.284-17.68-8.9352-23.444-9.6442-85.354l-0.6376-55.667h24.046l0.5412 57.667c0.6012 64.043 0.7437 65.193 9.6266 77.687 5.2409 7.3714 16.739 15.733 25.149 18.287 9.2809 2.8193 30.895 2.0166 39.839-1.4796 15.183-5.9354 26.326-19.856 28.978-36.202 0.8097-4.9911 1.4038-31.243 1.4096-62.293l0.01-53.667h24.178l-0.4944 57.667c-0.4621 53.898-0.68 58.334-3.3349 67.872-9.5766 34.408-31.978 51.444-69.015 52.487-8.0666 0.2272-16.467 0.1357-18.667-0.2032zm-314-80.489v-77.333h-29.333v-20h29.333v-64h24v64h34.667v20h-34.667v154.67h-24zm88-10v-87.333h24v174.67h-24zm60 0v-87.333h24l0.084 26 2.9355-4c7.1521-9.7459 15.176-16.924 23.487-21.012 7.4576-3.6678 10.202-4.3106 18.14-4.2485 5.6894 0.044 11.356 0.9503 14.466 2.3126l5.1133 2.2395-5.4057 9.6873c-4.041 7.2418-6.0051 9.5596-7.7799 9.1811-1.3059-0.2785-6.3214-0.5785-11.146-0.6667-7.5821-0.1386-9.6446 0.3819-15.213 3.8397-10.058 6.245-18.162 20.074-22.257 37.982-0.7571 3.3101-1.6694 30.168-2.0275 59.685l-0.6511 53.667h-23.747v-87.333zm298.67 0v-87.333h24l0.084 26 2.9354-4c15.476-21.088 34.97-29.816 53.544-23.974 4.0901 1.2865 7.4365 2.8042 7.4365 3.3728 0 0.5685-2.4636 5.3066-5.4745 10.529-4.8144 8.3505-5.8194 9.3695-8.3334 8.4505-1.5724-0.5748-6.5073-1.045-10.967-1.045-6.6891 0-9.2347 0.6999-14.547 4-10.055 6.2468-18.159 20.078-22.254 37.982-0.757 3.3101-1.6694 30.168-2.0275 59.685l-0.651 53.667h-23.747v-87.333zm96.57-34.437c-0.4113-1.072-0.558-4.2622-0.3257-7.0893 0.3882-4.7286 0.7424-5.1402 4.4221-5.1402 3.9111 0 4 0.1481 4 6.6667 0 6.2849-0.2104 6.6908-3.6743 7.0893-2.3008 0.2646-3.9538-0.306-4.4221-1.5265zm22.096-24.896v-26.667h9.3333v53.333h-9.3333zm22.667 0v-26.667h4c3.1644 0 4 0.5802 4 2.7777 0 1.5278 0.45 2.5472 1 2.2653 10.686-5.4765 14.52-6.627 20.019-6.0072 7.1424 0.8051 12.16 4.2106 15.312 10.392 1.9072 3.7401 2.3317 8.15 2.3333 24.238v19.667h-8l-0.059-14.333c-0.076-18.717-1.4316-25.459-5.891-29.294-4.3274-3.7223-9.3462-3.865-14.986-0.4262-7.0152 4.2774-8.7441 9.3452-9.4573 27.721l-0.634 16.333h-7.64v-26.667zm-23.238-38.095c-1.1524-1.1524-2.0952-2.9096-2.0952-3.9048 0-2.7757 3.8487-6 7.1619-6 3.7325 0 6.1715 2.3712 6.1715 6 0 5.7047-7.0046 8.1384-11.238 3.9048zm-475.03-27.184c-15.309-9.3345-8.3914-33.387 9.6019-33.387 10.14 0 17.99 7.8543 17.99 18 0 14.104-15.51 22.754-27.592 15.387z" fill="#8bb15a"/>
  <path d="m1296.4 2481.8c-24.23-3.7332-42.575-16.72-51.984-36.802-8.284-17.68-8.9352-23.444-9.6442-85.354l-0.6376-55.667h24.046l0.5412 57.667c0.6012 64.043 0.7437 65.193 9.6266 77.687 5.2409 7.3714 16.739 15.733 25.149 18.287 9.2809 2.8193 30.895 2.0166 39.839-1.4796 15.183-5.9354 26.326-19.856 28.978-36.202 0.8097-4.9911 1.4038-31.243 1.4096-62.293l0.01-53.667h24.178l-0.4944 57.667c-0.4621 53.898-0.68 58.334-3.3349 67.872-9.5766 34.408-31.978 51.444-69.015 52.487-8.0666 0.2272-16.467 0.1357-18.667-0.2032zm-807.33-1.8731c-1.8333-0.6363-8.4527-2.6638-14.71-4.5056-37.224-10.957-67.588-41.046-80.17-79.444-3.6657-11.187-4.2237-14.941-4.776-32.135-0.53957-16.797-0.23708-21.005 2.2042-30.667 9.5491-37.79 31.351-65.468 64.49-81.873 20.517-10.157 22.893-10.597 56.962-10.561 20.692 0.022 32.068 0.5837 36.667 1.8104 10.36 2.7637 28.739 11.144 38.835 17.708 11.326 7.3631 28.704 21.169 28.203 22.405-0.66339 1.635-14.803 17.312-15.615 17.312-0.43328 0-5.4134-3.8611-11.067-8.5802-16.134-13.468-33.542-22.525-51.69-26.893-11.734-2.8245-38.133-2.3737-50.189 0.8571-28.375 7.6039-52.373 26.262-64.903 50.462-8.0004 15.451-9.5749 22.603-9.5749 43.488 0 20.771 1.6067 28.075 9.4416 42.92 13.217 25.043 31.623 40.215 61.53 50.719 9.6626 3.3937 11.845 3.6403 32.361 3.6562 21.211 0.017 22.412-0.1301 33.49-4.0862 20.714-7.3971 36.609-20.447 46.133-37.876 4.7281-8.6522 8.9568-21.897 7.8838-24.693-0.6422-1.6736-6.1166-1.9735-36.021-1.9735-21.763 0-35.434-0.4987-35.709-1.3026-0.24444-0.7164-0.24704-5.8164-5e-3 -11.333l0.43824-10.031h97.51l-0.74378 13c-2.3342 40.799-23.494 74.234-57.535 90.914-20.536 10.063-26.611 11.336-55.443 11.617-13.567 0.1325-26.167-0.2796-28-0.9159zm284.67-1.9043c-25.57-4.6969-52.144-20.138-69.236-40.231-13.644-16.039-20.873-30.055-26.155-50.705-3.3921-13.263-3.6153-41.494-0.43839-55.462 7.8218-34.39 30.766-64.127 61.829-80.137 36.837-18.985 76.005-19.228 112-0.6953 31.502 16.22 53.324 43.838 62.59 79.214 4.064 15.516 3.8652 41.205-0.45036 58.218-15.729 62.007-77.156 101.37-140.14 89.798zm49.333-24.397c34.58-11.114 58.679-36.915 67.519-72.288 5.6631-22.661 1.3399-50.733-11.032-71.638-10.75-18.165-31.003-34.789-51.305-42.112-53.82-19.414-113.29 12.082-127.88 67.723-8.6657 33.06 1.1356 68.658 25.68 93.266 13.144 13.179 28.081 21.667 46.306 26.315 12.468 3.1801 38.93 2.5192 50.709-1.2666zm159.33-52.315v-77.333h-29.333v-20h29.333v-30.244l5.2732-1.5799c6.6173-1.9826 12.741-7.0703 16.052-13.337l2.5568-4.8386 0.118 50h34.667v20h-34.667v154.67h-24zm88-10v-87.333h24v174.67h-24zm60 0v-87.333h24l0.084 26 2.9355-4c7.1521-9.7459 15.176-16.924 23.487-21.012 7.4576-3.6678 10.202-4.3106 18.14-4.2485 5.6894 0.044 11.356 0.9503 14.466 2.3126l5.1133 2.2395-5.4057 9.6873c-4.041 7.2418-6.0051 9.5596-7.7799 9.1811-1.3059-0.2785-6.3214-0.5785-11.146-0.6667-7.5821-0.1386-9.6446 0.3819-15.213 3.8397-10.058 6.245-18.162 20.074-22.257 37.982-0.7571 3.3101-1.6694 30.168-2.0275 59.685l-0.6511 53.667h-23.747v-87.333zm298.67 0v-87.333h24l0.084 26 2.9354-4c10.647-14.508 24.867-24.23 37.529-25.657 5.4651-0.616 6.0442-0.4001 6.6819 2.4914 0.8569 3.885 3.4359 18.704 3.436 19.744 1e-4 0.4154-4.3943 0.7552-9.7651 0.7552-8.5285 0-10.582 0.5066-16.213 4-10.062 6.2417-18.166 20.068-22.263 37.982-0.757 3.3101-1.6694 30.168-2.0275 59.685l-0.651 53.667h-23.747v-87.333zm96.57-34.437c-0.4113-1.072-0.558-4.2622-0.3257-7.0893 0.3882-4.7286 0.7424-5.1402 4.4221-5.1402 3.9111 0 4 0.1481 4 6.6667 0 6.2849-0.2104 6.6908-3.6743 7.0893-2.3008 0.2646-3.9538-0.306-4.4221-1.5265zm22.096-24.896v-26.667h9.3333v53.333h-9.3333zm22.667 0v-26.667h4c3.1644 0 4 0.5802 4 2.7777 0 1.5278 0.45 2.5472 1 2.2653 10.686-5.4765 14.52-6.627 20.019-6.0072 7.1424 0.8051 12.16 4.2106 15.312 10.392 1.9072 3.7401 2.3317 8.15 2.3333 24.238v19.667h-8l-0.059-14.333c-0.076-18.717-1.4316-25.459-5.891-29.294-4.3274-3.7223-9.3462-3.865-14.986-0.4262-7.0152 4.2774-8.7441 9.3452-9.4573 27.721l-0.634 16.333h-7.64v-26.667zm-23.238-38.095c-1.1524-1.1524-2.0952-2.9096-2.0952-3.9048 0-2.7757 3.8487-6 7.1619-6 3.7325 0 6.1715 2.3712 6.1715 6 0 5.7047-7.0046 8.1384-11.238 3.9048z" fill="#778e59"/>
  <path d="m1296.4 2481.4c-25.024-3.7637-41.663-15.338-51.748-35.998-8.0481-16.486-9.139-26.14-9.9068-87.667l-0.6698-53.667h24.325l0.01 53c0 29.15 0.5965 56.6 1.3162 61 1.7033 10.414 8.1277 23.324 14.307 28.749 2.7002 2.3708 8.8378 6.1721 13.639 8.4474 8.1906 3.8813 9.6769 4.1369 24.063 4.1357 13.842-1e-3 16.075-0.3486 22.957-3.5734 10.628-4.9796 19.927-14.084 24.269-23.76 4.6838-10.437 5.9966-28.996 6.0596-85.665l0.047-42.333h22.889l-0.584 57c-0.6398 62.435-1.167 67.407-8.9005 83.933-12.819 27.394-45.518 41.896-82.071 36.398zm-811.74-4.1293c-26.322-6.9957-40.377-14.465-57.392-30.502-16.459-15.512-28.702-36.501-33.462-57.367-1.2548-5.5-2.8342-11.843-3.5097-14.095-1.5874-5.2922-1.5874-25.185 0-30.477 0.67549-2.2522 2.2742-8.5948 3.5526-14.095 10.099-43.448 42.033-75.572 87.018-87.534 12.627-3.3579 51.394-3.3096 65.397 0.082 12.698 3.0749 28.913 10.025 41.159 17.643 10.19 6.3383 27.301 19.756 28.135 22.061 0.26945 0.7452-2.9791 4.8603-7.219 9.1449l-7.7089 7.7902-6.781-6.1003c-14.638-13.168-33.328-23.66-51.05-28.658-12.699-3.5808-40.885-4.2573-51.731-1.2417-10.696 2.9738-26.081 9.5545-34 14.543-43.895 27.65-58.059 84.562-31.974 128.47 26.213 44.123 82.635 63.354 130.36 44.43 12.105-4.8001 18.394-9.115 29.162-20.006 11.531-11.663 19.34-26.315 19.617-36.804l0.173-6.5675-70.667-0.5851-0.7745-22h97.722l-0.71039 8.3333c-4.1218 48.352-25.983 81.865-63.57 97.453-26.681 11.065-55.05 13.176-81.741 6.0823zm287.52-0.6726c-40.814-8.0442-76.315-39.387-89.835-79.314-6.2938-18.587-7.9894-39.369-4.7252-57.917 8.4636-48.091 41.438-84.29 88.783-97.466 13.645-3.7972 47.787-3.4791 61.884 0.5766 26.883 7.7344 52.267 25.905 67.475 48.3 16.114 23.73 23.685 54.616 20.061 81.847-6.2389 46.883-34.929 82.91-79.223 99.482-17.355 6.4932-44.617 8.3933-64.421 4.4901zm37.862-19.863c19.332-1.8467 37.917-11.396 54.554-28.03 10.345-10.343 13.12-14.1 18.286-24.749 7.7544-15.986 10.14-26.315 10.165-44.008 0.0545-39.074-20.533-72.091-55.314-88.711-40.923-19.554-88.446-9.26-118.12 25.588-8.2756 9.7168-17.603 28.668-20.429 41.506-12.561 57.061 27.412 112.98 85.093 119.04 5.2038 0.5466 11.261 0.8058 13.461 0.5761 2.2-0.2298 7.7391-0.775 12.309-1.2117zm172.36-55.334v-77.333h-29.333v-20h29.333v-15.333c0-15.006 0.0641-15.334 3-15.355 4.6014-0.034 13.242-5.5048 16.627-10.529l3.0394-4.5103v45.728h36v20h-36v154.67h-22.667zm89.333-10v-87.333h22.667v174.67h-22.667zm58.667 0v-87.333h24l0.03 26 3.5598-4.6666c14.761-19.351 31.546-27.639 48.743-24.069 12.203 2.5334 12.469 3.1735 5.9944 14.434-4.1299 7.1823-6.1058 9.4716-7.6181 8.8261-5.7418-2.4509-15.692-2.0815-22.469 0.8337-8.5958 3.698-14.112 9.8584-19.653 21.949-7.3124 15.956-7.5685 18.361-8.2058 77.027l-0.5902 54.333h-23.791v-87.333zm298.67 0v-87.333h24l0.03 26 3.5598-4.6666c10.824-14.19 23.911-23.069 36.556-24.802l5.9298-0.8127 1.6289 9.4988c2.5581 14.918 2.7523 14.428-5.4549 13.748-8.9952-0.7459-19.183 3.3757-25.154 10.176-4.8782 5.5559-12.051 20.532-14.461 30.192-1.1354 4.5516-1.8503 23.904-2.2532 61l-0.5902 54.333h-23.791v-87.333zm97.651-34.216c-2.6893-2.6894-2.1035-11.461 0.8277-12.392 5.0655-1.6077 7.0159 0.497 6.5874 7.1085-0.3239 4.9986-0.9071 6.238-3.0818 6.5497-1.4752 0.2114-3.4252-0.3586-4.3333-1.2667zm21.016-25.118v-26.667h9.3333v53.333h-9.3333zm22.667 0v-26.667h4c3.3648 0 4 0.523 4 3.2931v3.2932l4.8008-3.2579c12.517-8.4945 28.972-4.2276 32.486 8.4239 0.7507 2.7029 1.3683 13.164 1.3723 23.248l0.013 18.333h-8l-0.013-15.667c-0.013-24.927-3.3036-31.815-14.616-30.579-4.4743 0.4886-6.8595 1.6609-9.5843 4.7105-4.9829 5.5769-6.4428 11.883-6.4515 27.869l-0.01 13.667h-8zm-22.333-36.883c-0.9166-0.3699-1.6666-2.7111-1.6666-5.2026 0-3.6734 0.6069-4.6825 3.2092-5.3356 4.5076-1.1313 8.7908 1.5101 8.7908 5.4213 0 4.5234-5.3002 7.1479-10.333 5.1169z" fill="#657056"/>
  <path d="m1293.7 2480.8c-23.279-4.6044-36.98-14.01-47.726-32.76-8.9766-15.664-11.577-38.765-11.596-103l-0.012-41h24l0.011 53c0.01 30.293 0.6046 56.664 1.3977 61.552 2.8922 17.825 13.361 31.431 28.99 37.676 6.3423 2.5343 10.143 3.0434 22.936 3.0717 14.471 0.032 15.832-0.2025 24.202-4.1678 14.634-6.9332 23.21-17.67 26.519-33.2 0.7734-3.6287 1.7585-31.648 2.1891-62.265l0.783-55.667h22.529l-0.5873 57c-0.4994 48.467-0.9364 58.397-2.9193 66.333-6.8495 27.414-23.672 45.331-48.89 52.071-10.724 2.866-30.887 3.5197-41.825 1.3561zm-790.62-0.683c-0.42704-0.691-3.6124-1.6497-7.0787-2.1306-13.048-1.8099-29.627-6.5983-40.302-11.64-8.6152-4.069-22.832-14.821-30.883-23.357-23.676-25.101-33.117-49.027-33.117-83.929 0-16.385 0.79634-21.663 5.6857-37.686 14.841-48.635 60.782-80.389 116.31-80.394 17.264 0 27.314 1.6228 43.419 7.0185 16.248 5.4437 28.021 11.616 41.163 21.58 6.1383 4.6543 12.269 9.2855 13.623 10.292 3.699 2.7482 3.1061 4.2926-4.5501 11.854l-7.0123 6.9252-4.2775-3.9976c-7.4972-7.0067-24.103-18.294-33.323-22.65-18.78-8.8731-24.129-9.9455-49.041-9.8313-21.98 0.1006-23.005 0.2298-33.824 4.2626-20.688 7.7108-38.271 20.396-49.684 35.845-2.8372 3.8406-5.1585 7.3204-5.1585 7.733s-1.3788 2.9882-3.0639 5.7236c-1.6851 2.7354-4.1697 8.5735-5.5212 12.974-1.3516 4.4-3.1004 9.7822-3.8862 11.96-2.0853 5.7801-1.8764 30.908 0.31622 38.04 8.6271 28.057 20.455 45.876 39.283 59.179 20.624 14.571 34.782 19.512 58.709 20.488 28.497 1.1617 44.834-3.2425 63.576-17.138 12.017-8.9104 20.133-18.487 25.306-29.861 3.7965-8.3482 7.5809-22.812 6.303-24.09-0.40712-0.4071-16.587-0.6869-35.955-0.6217-19.368 0.065-35.481-0.1454-35.807-0.4681-0.3258-0.3227-0.39312-4.8392-0.14961-10.037l0.44275-9.4501h94.609l-0.84371 9.6667c-1.8612 21.324-8.4518 42.679-17.531 56.805-2.6613 4.1406-9.6464 12.171-15.522 17.846-12.712 12.277-28.657 20.768-45.598 24.281-5.8667 1.2169-13.447 3.08-16.846 4.1402-6.875 2.1449-28.561 2.634-29.773 0.6715zm272.62-4.0641c-20.574-3.9024-34.043-9.5152-49.333-20.558-63.49-45.853-66.125-139.99-5.3123-189.77 22.917-18.759 58.965-29.599 86.258-25.937 17.335 2.3258 27.734 5.2224 40.369 11.244 31.388 14.959 53.235 40.761 63.512 75.011 3.2413 10.802 3.6009 14.064 3.6009 32.667 0 18.584-0.36198 21.876-3.5927 32.667-9.9663 33.289-31.625 59.071-63.122 75.14-12.041 6.1429-39.185 12.316-53.046 12.064-3.6667-0.067-12.367-1.2025-19.333-2.5239zm37.845-18.756c19.63-5.0439 29.704-9.6026 41.943-18.979 24.582-18.833 38.892-48.142 38.871-79.611-7e-3 -11.14-0.64688-14.979-4.8409-29.057-7.3668-24.729-26.513-46.941-50.744-58.869-15.834-7.7943-26.028-9.7736-47.223-9.1691-15.574 0.4441-19.213 1.0011-28.518 4.3656-28.982 10.479-50.003 31.254-61.45 60.729-3.7446 9.6425-3.8834 10.811-3.8834 32.667 0 21.478 0.19366 23.189 3.6925 32.633 7.6831 20.736 22.802 40.112 39.77 50.966 7.3779 4.7196 24.133 11.687 33.87 14.084 7.3342 1.8057 31.824 1.9582 38.512 0.2399zm168.82-55.923v-77.333h-29.333v-20h29.333v-14.667c0-11.166 0.41483-14.667 1.7382-14.667 3.9668 0 15.613-7.1059 18.158-11.079l2.7252-4.2544 0.022 22.333 0.023 22.333h36v20h-36v154.67h-22.667zm89.333-10v-87.333h22.667v174.67h-22.667zm58.667 0v-87.333h24l0.02 27.333 2.5856-3.9224c1.4221-2.1572 5.7681-7.1687 9.6579-11.137 15.438-15.748 29.681-19.393 48.227-12.342l3.37 1.2813-5.5958 10.039c-4.1384 7.4247-6.1167 9.8073-7.5958 9.1481-1.1-0.4901-5.209-1.1399-9.1312-1.4438-17.714-1.3725-30.902 11.591-38.361 37.71-1.9431 6.8034-2.3685 16.227-2.8437 63l-0.5587 55h-23.772v-87.333zm298.67 0v-87.333h24l0.02 27.333 2.6152-3.9675c8.6832-13.173 24.779-24.814 36.919-26.699l5.5519-0.8623 1.3548 7.0978c0.7452 3.9038 1.6968 9.1978 2.1146 11.764l0.7598 4.6667-7.4644-0.4644c-18.21-1.1328-31.2 11.556-38.694 37.798-1.9431 6.8034-2.3684 16.227-2.8436 63l-0.5588 55h-23.772v-87.333zm97.406-34.58c-2.1757-2.6216-1.2325-10.176 1.4827-11.875 3.4283-2.1458 6.4451 1.1972 6.4451 7.1421 0 3.3544-0.7019 5.2968-2.1091 5.8368-3.1116 1.194-4.0613 1.0139-5.8187-1.1036zm21.261-24.754v-26.667h9.3333v53.333h-9.3333zm22.667 0v-26.667h4c3.3837 0 4 0.5164 4 3.3522v3.3523l5.5357-3.6634c6.8913-4.5605 18.242-5.0899 24.199-1.1288 7.0197 4.6681 8.1848 8.8309 8.7002 31.088l0.471 20.333h-8.2394l-0.013-16.333c-0.013-24.564-2.5931-30.333-13.576-30.333-6.3727 0-13.787 6.1874-15.71 13.11-0.7471 2.6897-1.3617 11.34-1.3657 19.224v14.333h-8zm-22.4-37.6c-3.5432-3.5432-0.9688-10.4 3.9048-10.4 2.7489 0 6.4952 3.4607 6.4952 6 0 4.6638-7.1228 7.6773-10.4 4.4z" fill="#575954"/>
 </g>
</svg>
